<svg xmlns="http://www.w3.org/2000/svg" viewBox="0 0 128 128" fill="none">
  <circle cx="64" cy="64" r="64" fill="#F7931A"/>
  <circle cx="64" cy="64" r="56" fill="#F7931A"/>
  <path d="M82.5 55.8c1.2-8-4.9-12.3-13.2-15.2l2.7-10.8-6.6-1.6-2.6 10.5c-1.7-.4-3.5-.8-5.3-1.2l2.7-10.6-6.6-1.6-2.7 10.8c-1.4-.3-2.8-.6-4.1-1l0 0-9.1-2.3-1.8 7s4.9 1.1 4.8 1.2c2.7.7 3.2 2.4 3.1 3.8L41 55.5c.2 0 .4.1.6.2-.2 0-.4-.1-.6-.2l-4.3 17.4c-.3.8-1.1 2-3 1.5.1.1-4.8-1.2-4.8-1.2l-3.3 7.5 8.6 2.1c1.6.4 3.2.8 4.7 1.2l-2.7 11 6.6 1.6 2.7-10.8c1.8.5 3.5 1 5.2 1.4l-2.7 10.7 6.6 1.6 2.7-11c11.3 2.1 19.8 1.3 23.4-8.9 2.9-8.2-.1-13-6.1-16.1 4.3-1 7.6-3.8 8.5-9.7zm-15.2 21.3c-2.1 8.2-16 3.8-20.5 2.7l3.7-14.7c4.5 1.1 19 3.3 16.9 12zm2.1-21.4c-1.9 7.5-13.5 3.7-17.2 2.8l3.3-13.3c3.8.9 15.9 2.7 13.9 10.5z" fill="white"/>
</svg>
